# xmcd CD database file
#
# Track frame offsets:
#	150
#	12780
#	36435
#	54465
#	71642
#	85372
#	97647
#	115482
#	135720
#	161897
#	179792
#	190190
#	206980
#	222787
#	234795
#	247267
#	264200
#
# Disc length: 3768 seconds
#
# Revision: 0
# Processed by: cddbd v1.5.1PL2 Copyright (c) Steve Scherf et al.
# Submitted via: CDex 1.51
#
DISCID=f70eb611
DTITLE=Daryl Sherman and Dave McKenna - Jubilee
DYEAR=2000
DGENRE=Jazz
TTITLE0=Tulip or Turnip
TTITLE1=Isn't This a Lovely Day?
TTITLE2=Flying Down to Rio
TTITLE3=Memphis in June
TTITLE4=Perdido
TTITLE5=A Room With a View
TTITLE6=Zigeuner
TTITLE7=It's Kind of Lonesome Out Tonight
TTITLE8=Fred and Ginger Medley: Night and Day - The Way You Look Tonight - I Won't Dance - Shall We Dance
TTITLE9=Moonburn
TTITLE10=Riverboat Shuffle
TTITLE11=Chase Me Charlie
TTITLE12=C'est Comme Ca
TTITLE13=Swingtime in Honolulu
TTITLE14=I'll Follow My Secret Heart - Someday I'll Find You
TTITLE15=Jubilee
TTITLE16=20th Century Blues
EXTD=YEAR: 2000
EXTT0=
EXTT1=
EXTT2=
EXTT3=
EXTT4=
EXTT5=
EXTT6=
EXTT7=
EXTT8=
EXTT9=
EXTT10=
EXTT11=
EXTT12=
EXTT13=
EXTT14=
EXTT15=
EXTT16=
PLAYORDER=
